<?xml version="1.0" encoding="UTF-8" standalone="no"?>
<!DOCTYPE svg PUBLIC "-//W3C//DTD SVG 1.1//EN" "http://www.w3.org/Graphics/SVG/1.1/DTD/svg11.dtd">
<svg width="100%" height="100%" viewBox="0 0 3434 834" version="1.1" xmlns="http://www.w3.org/2000/svg" xmlns:xlink="http://www.w3.org/1999/xlink" xml:space="preserve" xmlns:serif="http://www.serif.com/" style="fill-rule:evenodd;clip-rule:evenodd;stroke-linejoin:round;stroke-miterlimit:2;">
    <g transform="matrix(1,0,0,1,-6385,-19463)">
        <g id="Artboard6" transform="matrix(0.93424,0,0,1,419.434,-0.879462)">
            <rect x="6385.47" y="19463.9" width="3675" height="833.333" style="fill:none;"/>
            <g transform="matrix(2.52732,0,0,0.923133,6088.96,8666.25)">
                <g transform="matrix(-0.767136,0.403609,0.179544,2.23251,232.298,6527.08)">
                    <path d="M349.646,2437.4C349.646,2437.4 353.115,2452.32 376.878,2457.64C389.726,2460.51 408.208,2460.51 435.091,2454.28C446.432,2451.87 456.699,2446.65 466.824,2440.71C473.673,2436.69 480.397,2432.25 487.189,2427.88C496.076,2422.14 505.052,2416.5 514.222,2411.64C524.346,2406.27 534.703,2401.84 545.577,2399.48C569.736,2394.23 596.389,2398.2 627.746,2424.41C628.786,2425.19 628.912,2426.56 628.028,2427.47C627.144,2428.39 625.582,2428.5 624.542,2427.72C593.998,2407.35 570.515,2405.25 549.718,2411.68C542.354,2413.96 535.422,2417.35 528.574,2421.22C518.29,2427.03 508.462,2434.16 498.347,2440.97C491.31,2445.7 484.137,2450.27 476.772,2454.29C464.614,2460.91 451.913,2466 438.423,2468.15C408.034,2472.42 387.626,2470.54 373.888,2466.01C346.057,2456.82 344.738,2437.93 344.738,2437.93C344.569,2436.74 345.532,2435.66 346.887,2435.51C348.241,2435.36 349.477,2436.21 349.646,2437.4L349.646,2437.4Z" style="fill:rgb(14,185,176);"/>
                </g>
                <g transform="matrix(-0.767136,0.403609,0.179544,2.23251,232.298,6614.74)">
                    <path d="M349.646,2437.4C349.646,2437.4 353.115,2452.32 376.878,2457.64C389.726,2460.51 408.208,2460.51 435.091,2454.28C446.432,2451.87 456.699,2446.65 466.824,2440.71C473.673,2436.69 480.397,2432.25 487.189,2427.88C496.076,2422.14 505.052,2416.5 514.222,2411.64C524.346,2406.27 534.703,2401.84 545.577,2399.48C569.736,2394.23 596.389,2398.2 627.746,2424.41C628.786,2425.19 628.912,2426.56 628.028,2427.47C627.144,2428.39 625.582,2428.5 624.542,2427.72C593.998,2407.35 570.515,2405.25 549.718,2411.68C542.354,2413.96 535.422,2417.35 528.574,2421.22C518.29,2427.03 508.462,2434.16 498.347,2440.97C491.31,2445.7 484.137,2450.27 476.772,2454.29C464.614,2460.91 451.913,2466 438.423,2468.15C408.034,2472.42 387.626,2470.54 373.888,2466.01C346.057,2456.82 344.738,2437.93 344.738,2437.93C344.569,2436.74 345.532,2435.66 346.887,2435.51C348.241,2435.36 349.477,2436.21 349.646,2437.4L349.646,2437.4Z" style="fill:rgb(14,185,176);"/>
                </g>
                <g transform="matrix(-0.767136,0.403609,0.179544,2.23251,232.298,6439.43)">
                    <path d="M349.646,2437.4C349.646,2437.4 353.115,2452.32 376.878,2457.64C389.726,2460.51 408.208,2460.51 435.091,2454.28C446.432,2451.87 456.699,2446.65 466.824,2440.71C473.673,2436.69 480.397,2432.25 487.189,2427.88C496.076,2422.14 505.052,2416.5 514.222,2411.64C524.346,2406.27 534.703,2401.84 545.577,2399.48C569.736,2394.23 596.389,2398.2 627.746,2424.41C628.786,2425.19 628.912,2426.56 628.028,2427.47C627.144,2428.39 625.582,2428.5 624.542,2427.72C593.998,2407.35 570.515,2405.25 549.718,2411.68C542.354,2413.96 535.422,2417.35 528.574,2421.22C518.29,2427.03 508.462,2434.16 498.347,2440.97C491.31,2445.7 484.137,2450.27 476.772,2454.29C464.614,2460.91 451.913,2466 438.423,2468.15C408.034,2472.42 387.626,2470.54 373.888,2466.01C346.057,2456.82 344.738,2437.93 344.738,2437.93C344.569,2436.74 345.532,2435.66 346.887,2435.51C348.241,2435.36 349.477,2436.21 349.646,2437.4L349.646,2437.4Z" style="fill:rgb(14,185,176);"/>
                </g>
            </g>
            <g transform="matrix(0.929625,-0.153139,0.142937,0.757331,5970.83,18805.5)">
                <path d="M304.205,1490.05C309.134,1389.85 355.872,1303.05 426.465,1243.29C459.004,1215.74 496.623,1194.46 537.698,1180C575.863,1166.56 616.961,1158.99 659.934,1159.87C685.314,1159.52 710.017,1162.27 733.906,1166.93C794.054,1178.66 848.688,1204.89 893.586,1243.03C964.118,1302.95 1010.83,1389.81 1015.66,1490.05C1020.73,1384.99 980.433,1287.66 911.887,1217.29C866.09,1170.27 807.624,1135.56 742.093,1118.92C715.754,1112.24 688.188,1109.16 659.934,1108.77C612.185,1109.74 566.483,1118.96 524.893,1136.65C480.62,1155.49 440.867,1182.97 407.799,1217.03C339.316,1287.57 299.034,1384.93 304.205,1490.05Z" style="fill:rgb(47,100,152);"/>
            </g>
            <g transform="matrix(-0.163918,-0.868493,0.810639,-0.133538,5678.61,20694.1)">
                <path d="M304.205,1490.05C309.134,1389.85 355.872,1303.05 426.465,1243.29C459.004,1215.74 496.623,1194.46 537.698,1180C575.863,1166.56 616.961,1158.99 659.934,1159.87C685.314,1159.52 710.017,1162.27 733.906,1166.93C794.054,1178.66 848.688,1204.89 893.586,1243.03C964.118,1302.95 1010.83,1389.81 1015.66,1490.05C1020.73,1384.99 980.433,1287.66 911.887,1217.29C866.09,1170.27 807.624,1135.56 742.093,1118.92C715.754,1112.24 688.188,1109.16 659.934,1108.77C612.185,1109.74 566.483,1118.96 524.893,1136.65C480.62,1155.49 440.867,1182.97 407.799,1217.03C339.316,1287.57 299.034,1384.93 304.205,1490.05Z" style="fill:rgb(47,100,152);"/>
            </g>
            <g transform="matrix(0.163918,0.868493,-0.810639,0.133538,7993.34,19077.1)">
                <path d="M304.205,1490.05C309.134,1389.85 355.872,1303.05 426.465,1243.29C459.004,1215.74 496.623,1194.46 537.698,1180C575.863,1166.56 616.961,1158.99 659.934,1159.87C685.314,1159.52 710.017,1162.27 733.906,1166.93C794.054,1178.66 848.688,1204.89 893.586,1243.03C964.118,1302.95 1010.83,1389.81 1015.66,1490.05C1020.73,1384.99 980.433,1287.66 911.887,1217.29C866.09,1170.27 807.624,1135.56 742.093,1118.92C715.754,1112.24 688.188,1109.16 659.934,1108.77C612.185,1109.74 566.483,1118.96 524.893,1136.65C480.62,1155.49 440.867,1182.97 407.799,1217.03C339.316,1287.57 299.034,1384.93 304.205,1490.05Z" style="fill:rgb(47,100,152);"/>
            </g>
            <g transform="matrix(-0.929625,0.153139,-0.142937,-0.757331,7701.67,20965.7)">
                <path d="M304.205,1490.05C309.134,1389.85 355.872,1303.05 426.465,1243.29C459.004,1215.74 496.623,1194.46 537.698,1180C575.863,1166.56 616.961,1158.99 659.934,1159.87C685.314,1159.52 710.017,1162.27 733.906,1166.93C794.054,1178.66 848.688,1204.89 893.586,1243.03C964.118,1302.95 1010.83,1389.81 1015.66,1490.05C1020.73,1384.99 980.433,1287.66 911.887,1217.29C866.09,1170.27 807.624,1135.56 742.093,1118.92C715.754,1112.24 688.188,1109.16 659.934,1108.77C612.185,1109.74 566.483,1118.96 524.893,1136.65C480.62,1155.49 440.867,1182.97 407.799,1217.03C339.316,1287.57 299.034,1384.93 304.205,1490.05Z" style="fill:rgb(47,100,152);"/>
            </g>
            <g transform="matrix(0.215448,-0.904356,-1.13597,-0.316902,6915.92,19787.6)">
                <path d="M-87.721,328.68C33.164,327.793 123.87,239.001 151.286,174.52C171.869,126.111 160.258,90.437 143.418,66.821C127.773,44.882 119.342,31.846 119.342,31.846C119.342,31.846 103.268,40.639 117.963,65.762C122.781,73.997 125.642,81.293 125.642,81.293C125.642,81.293 164.139,153.953 67.189,223.915C67.189,223.915 84.466,182.929 87.211,159.767C88.035,152.817 87.574,149.384 84.064,145.523C84.064,145.523 81.248,146.817 72.782,160.677C38.62,216.601 58.836,270.04 -87.721,328.68" style="fill:rgb(47,100,152);fill-rule:nonzero;"/>
            </g>
            <g transform="matrix(-0.215448,0.904356,1.13597,0.316902,6757.75,19983.2)">
                <path d="M-87.721,328.68C33.164,327.793 123.87,239.001 151.286,174.52C171.869,126.111 160.258,90.437 143.418,66.821C127.773,44.882 119.342,31.846 119.342,31.846C119.342,31.846 103.268,40.639 117.963,65.762C122.781,73.997 125.642,81.293 125.642,81.293C125.642,81.293 164.139,153.953 67.189,223.915C67.189,223.915 84.466,182.929 87.211,159.767C88.035,152.817 87.574,149.384 84.064,145.523C84.064,145.523 81.248,146.817 72.782,160.677C38.62,216.601 58.836,270.04 -87.721,328.68" style="fill:rgb(47,100,152);fill-rule:nonzero;"/>
            </g>
            <g transform="matrix(5.58339,0,0,5.21623,3034.46,-265.675)">
                <path d="M793.922,3845.81C790.301,3845.81 787.106,3847.13 784.337,3849.76C781.568,3852.4 779.518,3855.64 778.186,3859.47C776.855,3863.31 776.189,3866.58 776.189,3869.3C776.189,3872.01 776.269,3874.2 776.429,3875.85C776.589,3877.5 776.735,3878.79 776.868,3879.72C777.001,3880.65 777.068,3881.2 777.068,3881.36C777.068,3882.69 776.455,3883.35 775.231,3883.35C774.166,3883.35 773.18,3881.98 772.275,3879.24C771.37,3876.5 770.917,3873.64 770.917,3870.65C770.917,3862.51 773.021,3855.4 777.228,3849.33C781.435,3843.26 786.946,3840.22 793.763,3840.22C800.579,3840.22 806.184,3843.15 810.577,3849.01C814.97,3854.86 817.167,3862.17 817.167,3870.93C817.167,3879.69 814.651,3887.15 809.619,3893.3C804.586,3899.45 798.036,3902.53 789.968,3902.53C781.901,3902.53 775.124,3899.62 769.639,3893.82C764.154,3888.01 761.412,3880.56 761.412,3871.45C761.412,3867.72 761.798,3864.7 762.57,3862.39C763.342,3860.07 764.5,3858.91 766.045,3858.91C766.79,3858.91 767.403,3859.16 767.882,3859.67C768.361,3860.18 768.601,3860.7 768.601,3861.23C768.601,3861.76 768.428,3863.16 768.082,3865.42C767.735,3867.68 767.562,3869.7 767.562,3871.45C767.562,3879.28 769.772,3885.48 774.192,3890.06C778.612,3894.64 783.804,3896.93 789.769,3896.93C794.082,3896.93 797.903,3895.74 801.231,3893.34C804.56,3890.94 807.022,3887.87 808.62,3884.11C810.218,3880.36 811.016,3876.41 811.016,3872.25L811.016,3871.45C811.016,3864.42 809.459,3858.39 806.343,3853.36C803.228,3848.33 799.088,3845.81 793.922,3845.81ZM786.414,3825.2C788.597,3825.2 789.689,3826.48 789.689,3829.04C789.689,3830.21 789.303,3831.31 788.531,3832.35C787.758,3833.39 786.84,3833.91 785.775,3833.91C783.538,3833.91 782.42,3832.55 782.42,3829.84C782.42,3828.56 782.806,3827.47 783.578,3826.56C784.35,3825.66 785.295,3825.2 786.414,3825.2ZM799.194,3825.2C801.378,3825.2 802.469,3826.48 802.469,3829.04C802.469,3830.21 802.083,3831.31 801.311,3832.35C800.539,3833.39 799.62,3833.91 798.555,3833.91C796.319,3833.91 795.2,3832.55 795.2,3829.84C795.2,3828.56 795.586,3827.47 796.359,3826.56C797.131,3825.66 798.076,3825.2 799.194,3825.2Z" style="fill:rgb(14,185,176);fill-rule:nonzero;stroke:rgb(14,185,176);stroke-width:0.8px;"/>
                <path d="M829.708,3883.03L829.948,3898.05C829.948,3900.77 828.936,3902.13 826.912,3902.13C824.463,3902.13 823.238,3900.3 823.238,3896.65C823.238,3893.01 823.77,3887.69 824.835,3880.72C824.835,3878.48 824.609,3875.35 824.156,3871.33C823.704,3867.31 823.478,3864.88 823.478,3864.02C823.478,3863.17 823.77,3862.39 824.356,3861.67C824.942,3860.95 825.687,3860.59 826.593,3860.59C827.498,3860.59 828.244,3860.95 828.829,3861.67C829.415,3862.39 829.708,3863.12 829.708,3863.86C829.708,3864.61 829.695,3865.81 829.668,3867.46C829.641,3869.11 829.628,3870.25 829.628,3870.89C830.64,3868.23 832.291,3865.83 834.581,3863.7C836.924,3861.63 839.254,3860.59 841.57,3860.59C843.887,3860.59 845.724,3861.06 847.082,3861.99C848.44,3862.92 849.119,3863.97 849.119,3865.14C849.119,3866.31 848.826,3867.22 848.24,3867.86C847.654,3868.5 846.895,3868.82 845.963,3868.82C845.031,3868.82 844.006,3868.34 842.888,3867.38C841.876,3866.37 841.024,3865.86 840.332,3865.86C838.575,3865.86 836.524,3867.76 834.181,3871.57C831.838,3875.38 830.347,3879.2 829.708,3883.03Z" style="fill:rgb(14,185,176);fill-rule:nonzero;stroke:rgb(14,185,176);stroke-width:0.8px;"/>
                <path d="M855.03,3881.44C855.03,3885.86 856.254,3889.61 858.704,3892.7C861.154,3895.79 864.229,3897.33 867.93,3897.33C871.631,3897.33 874.773,3895.78 877.356,3892.66C879.939,3889.55 881.23,3885.78 881.23,3881.36C881.23,3876.94 879.992,3873.17 877.516,3870.05C875.039,3866.94 871.977,3865.38 868.329,3865.38C864.682,3865.38 861.526,3866.95 858.864,3870.09C856.308,3873.24 855.03,3877.02 855.03,3881.44ZM854.63,3896.41C851.116,3892.34 849.358,3887.35 849.358,3881.44C849.358,3875.53 851.142,3870.51 854.71,3866.38C858.278,3862.25 862.778,3860.19 868.21,3860.19C873.641,3860.19 878.115,3862.23 881.629,3866.3C885.144,3870.37 886.901,3875.38 886.901,3881.32C886.901,3887.26 885.104,3892.27 881.51,3896.38C877.915,3900.47 873.415,3902.53 868.01,3902.53C862.605,3902.53 858.145,3900.49 854.63,3896.41ZM862.059,3843.41C864.242,3843.41 865.334,3844.69 865.334,3847.25C865.334,3848.42 864.948,3849.53 864.176,3850.56C863.404,3851.6 862.485,3852.12 861.42,3852.12C859.183,3852.12 858.065,3850.76 858.065,3848.05C858.065,3846.77 858.451,3845.68 859.223,3844.77C859.995,3843.87 860.941,3843.41 862.059,3843.41ZM874.84,3843.41C877.023,3843.41 878.115,3844.69 878.115,3847.25C878.115,3848.42 877.729,3849.53 876.956,3850.56C876.184,3851.6 875.266,3852.12 874.201,3852.12C871.964,3852.12 870.846,3850.76 870.846,3848.05C870.846,3846.77 871.232,3845.68 872.004,3844.77C872.776,3843.87 873.721,3843.41 874.84,3843.41Z" style="fill:rgb(14,185,176);fill-rule:nonzero;stroke:rgb(14,185,176);stroke-width:0.8px;"/>
                <path d="M950.006,3876.16L949.606,3888.71L949.606,3892.14C949.713,3894.32 950.245,3895.63 951.204,3896.06C951.577,3896.16 952.003,3896.26 952.482,3896.34C952.961,3896.41 953.294,3896.51 953.48,3896.61C953.667,3896.72 953.76,3896.93 953.76,3897.25C953.76,3898.64 953.321,3899.8 952.442,3900.73C951.563,3901.66 950.538,3902.13 949.367,3902.13C947.396,3902.13 946.012,3901.35 945.213,3899.81C944.414,3898.26 944.015,3895.89 944.015,3892.7L944.334,3878C944.334,3874.33 943.615,3871.39 942.178,3869.18C940.74,3866.97 938.769,3865.86 936.266,3865.86C933.764,3865.86 931.314,3867.38 928.918,3870.41C926.521,3873.45 924.844,3876.88 923.885,3880.72L924.125,3898.05C924.125,3900.77 923.113,3902.13 921.089,3902.13C918.64,3902.13 917.415,3900.3 917.415,3896.65C917.415,3893.01 917.948,3887.69 919.013,3880.72C919.013,3870.81 916.297,3865.86 910.865,3865.86C908.362,3865.86 905.913,3867.38 903.516,3870.41C901.12,3873.45 899.442,3876.88 898.484,3880.72L898.723,3898.05C898.723,3900.77 897.712,3902.13 895.688,3902.13C893.238,3902.13 892.014,3900.3 892.014,3896.65C892.014,3893.01 892.546,3887.69 893.611,3880.72C893.611,3878.48 893.385,3875.34 892.932,3871.29C892.48,3867.24 892.253,3864.8 892.253,3863.94C892.253,3863.09 892.546,3862.32 893.132,3861.63C893.718,3860.93 894.463,3860.59 895.368,3860.59C896.274,3860.59 897.019,3860.93 897.605,3861.63C898.191,3862.32 898.484,3863.07 898.484,3863.86C898.484,3864.66 898.47,3865.86 898.444,3867.46C898.417,3869.06 898.404,3870.15 898.404,3870.73C901.972,3863.97 906.498,3860.59 911.983,3860.59C915.072,3860.59 917.615,3861.49 919.612,3863.31C921.609,3865.12 923.007,3867.59 923.805,3870.73C927.373,3863.97 931.9,3860.59 937.385,3860.59C941.432,3860.59 944.521,3862.11 946.651,3865.14C948.887,3868.18 950.006,3871.85 950.006,3876.16Z" style="fill:rgb(14,185,176);fill-rule:nonzero;stroke:rgb(14,185,176);stroke-width:0.8px;"/>
                <path d="M998.732,3874.33C993.673,3857.93 990.81,3849.72 990.145,3849.72C989.479,3849.72 987.229,3855.8 983.395,3867.94L981.478,3874.01C983.821,3873.64 986.417,3873.45 989.266,3873.45C992.115,3873.45 995.27,3873.74 998.732,3874.33ZM973.889,3880.64C970.162,3881.86 966.98,3883.78 964.344,3886.39C961.708,3889 960.39,3891.45 960.39,3893.74C960.39,3894.86 960.669,3895.72 961.229,3896.34C961.788,3896.95 962.52,3897.25 963.425,3897.25C966.354,3897.25 969.842,3891.72 973.889,3880.64ZM1015.91,3897.17C1015.91,3898.77 1015.48,3900.06 1014.63,3901.05C1013.78,3902.03 1012.71,3902.53 1011.43,3902.53C1009.09,3902.53 1007.31,3900.8 1006.08,3897.33C1003.68,3890.2 1001.77,3884.29 1000.33,3879.6C996.282,3878.91 992.594,3878.56 989.266,3878.56C985.938,3878.56 982.889,3878.83 980.12,3879.36C976.659,3888.04 974.102,3893.68 972.452,3896.3C969.789,3900.45 966.7,3902.53 963.186,3902.53C960.736,3902.53 958.792,3901.7 957.354,3900.05C955.917,3898.4 955.198,3896.35 955.198,3893.9C955.198,3890.22 957.062,3886.52 960.789,3882.8C964.517,3879.07 969.363,3876.51 975.327,3875.13C977.67,3868.63 979.867,3862.21 981.917,3855.88C983.967,3849.54 985.126,3846.05 985.392,3845.41C986.51,3842.22 988.055,3840.62 990.025,3840.62C992.208,3840.62 993.833,3842 994.898,3844.77C995.164,3845.52 995.909,3847.73 997.134,3851.4L1005.04,3875.37C1007.23,3876.01 1009.01,3876.83 1010.39,3877.84C1011.78,3878.85 1012.47,3879.73 1012.47,3880.48C1012.47,3881.7 1011.81,3882.32 1010.47,3882.32C1010,3882.32 1008.72,3881.94 1006.64,3881.2C1008.93,3888.6 1010.42,3892.83 1011.11,3893.9C1011.81,3894.96 1012.36,3895.6 1012.79,3895.82C1013.22,3896.03 1013.7,3896.19 1014.23,3896.3C1015.35,3896.51 1015.91,3896.8 1015.91,3897.17ZM997.933,3826.88C997.933,3829.17 996.708,3831.47 994.259,3833.79C991.809,3836.11 989.879,3837.26 988.467,3837.26C987.056,3837.26 986.351,3836.68 986.351,3835.51C986.351,3834.82 986.643,3834.16 987.229,3833.55C987.815,3832.94 988.561,3832.07 989.466,3830.95C989.892,3830.32 990.398,3829.32 990.983,3827.96C991.569,3826.6 992.168,3825.58 992.781,3824.88C993.393,3824.19 994.152,3823.85 995.057,3823.85C995.963,3823.85 996.668,3824.14 997.174,3824.72C997.68,3825.31 997.933,3826.03 997.933,3826.88Z" style="fill:rgb(47,100,152);fill-rule:nonzero;stroke:rgb(47,100,152);stroke-width:0.8px;"/>
                <path d="M1025.81,3883.03L1026.05,3898.05C1026.05,3900.77 1025.04,3902.13 1023.01,3902.13C1020.57,3902.13 1019.34,3900.3 1019.34,3896.65C1019.34,3893.01 1019.87,3887.69 1020.94,3880.72C1020.94,3878.48 1020.71,3875.35 1020.26,3871.33C1019.81,3867.31 1019.58,3864.88 1019.58,3864.02C1019.58,3863.17 1019.87,3862.39 1020.46,3861.67C1021.05,3860.95 1021.79,3860.59 1022.7,3860.59C1023.6,3860.59 1024.35,3860.95 1024.93,3861.67C1025.52,3862.39 1025.81,3863.12 1025.81,3863.86C1025.81,3864.61 1025.8,3865.81 1025.77,3867.46C1025.74,3869.11 1025.73,3870.25 1025.73,3870.89C1026.74,3868.23 1028.39,3865.83 1030.68,3863.7C1033.03,3861.63 1035.36,3860.59 1037.67,3860.59C1039.99,3860.59 1041.83,3861.06 1043.18,3861.99C1044.54,3862.92 1045.22,3863.97 1045.22,3865.14C1045.22,3866.31 1044.93,3867.22 1044.34,3867.86C1043.76,3868.5 1043,3868.82 1042.07,3868.82C1041.13,3868.82 1040.11,3868.34 1038.99,3867.38C1037.98,3866.37 1037.13,3865.86 1036.43,3865.86C1034.68,3865.86 1032.63,3867.76 1030.28,3871.57C1027.94,3875.38 1026.45,3879.2 1025.81,3883.03Z" style="fill:rgb(47,100,152);fill-rule:nonzero;stroke:rgb(47,100,152);stroke-width:0.8px;"/>
                <path d="M1078.93,3882C1078.93,3885.88 1079.21,3889.12 1079.77,3891.7C1080.33,3894.28 1081.03,3895.74 1081.89,3896.06C1082.2,3896.22 1082.59,3896.32 1083.04,3896.38C1083.5,3896.43 1083.82,3896.51 1084,3896.61C1084.19,3896.72 1084.28,3896.93 1084.28,3897.25C1084.28,3898.74 1083.88,3899.93 1083.08,3900.81C1082.29,3901.69 1081.13,3902.13 1079.61,3902.13C1078.09,3902.13 1076.91,3901.15 1076.05,3899.21C1075.2,3897.27 1074.78,3894.72 1074.78,3891.58C1073.34,3894.67 1071.34,3897.2 1068.79,3899.17C1066.23,3901.14 1063.34,3902.13 1060.12,3902.13C1056.9,3902.13 1054.14,3901.06 1051.85,3898.93C1047.59,3894.99 1045.46,3889.43 1045.46,3882.24C1045.46,3876.43 1047.14,3871.37 1050.49,3867.06C1053.85,3862.75 1058.16,3860.59 1063.43,3860.59C1067.43,3860.59 1070.89,3861.95 1073.82,3864.66C1073.82,3861.95 1074.83,3860.59 1076.85,3860.59C1079.3,3860.59 1080.53,3862.41 1080.53,3866.06C1080.53,3869.71 1080,3875.02 1078.93,3882ZM1074.3,3882.72L1073.9,3870.41C1070.76,3867.33 1067.43,3865.78 1063.91,3865.78C1060.4,3865.78 1057.39,3867.35 1054.89,3870.49C1052.38,3873.64 1051.13,3877.43 1051.13,3881.88C1051.13,3886.32 1051.96,3889.94 1053.61,3892.74C1055.26,3895.54 1057.55,3896.93 1060.48,3896.93C1063.41,3896.93 1066.11,3895.63 1068.59,3893.02C1071.06,3890.41 1072.97,3886.97 1074.3,3882.72Z" style="fill:rgb(47,100,152);fill-rule:nonzero;stroke:rgb(47,100,152);stroke-width:0.8px;"/>
                <path d="M1146.67,3876.16L1146.27,3888.71L1146.27,3892.14C1146.38,3894.32 1146.91,3895.63 1147.87,3896.06C1148.24,3896.16 1148.66,3896.26 1149.14,3896.34C1149.62,3896.41 1149.96,3896.51 1150.14,3896.61C1150.33,3896.72 1150.42,3896.93 1150.42,3897.25C1150.42,3898.64 1149.98,3899.8 1149.1,3900.73C1148.23,3901.66 1147.2,3902.13 1146.03,3902.13C1144.06,3902.13 1142.67,3901.35 1141.88,3899.81C1141.08,3898.26 1140.68,3895.89 1140.68,3892.7L1141,3878C1141,3874.33 1140.28,3871.39 1138.84,3869.18C1137.4,3866.97 1135.43,3865.86 1132.93,3865.86C1130.42,3865.86 1127.98,3867.38 1125.58,3870.41C1123.18,3873.45 1121.51,3876.88 1120.55,3880.72L1120.79,3898.05C1120.79,3900.77 1119.78,3902.13 1117.75,3902.13C1115.3,3902.13 1114.08,3900.3 1114.08,3896.65C1114.08,3893.01 1114.61,3887.69 1115.67,3880.72C1115.67,3870.81 1112.96,3865.86 1107.53,3865.86C1105.02,3865.86 1102.57,3867.38 1100.18,3870.41C1097.78,3873.45 1096.1,3876.88 1095.15,3880.72L1095.38,3898.05C1095.38,3900.77 1094.37,3902.13 1092.35,3902.13C1089.9,3902.13 1088.67,3900.3 1088.67,3896.65C1088.67,3893.01 1089.21,3887.69 1090.27,3880.72C1090.27,3878.48 1090.05,3875.34 1089.59,3871.29C1089.14,3867.24 1088.91,3864.8 1088.91,3863.94C1088.91,3863.09 1089.21,3862.32 1089.79,3861.63C1090.38,3860.93 1091.12,3860.59 1092.03,3860.59C1092.94,3860.59 1093.68,3860.93 1094.27,3861.63C1094.85,3862.32 1095.15,3863.07 1095.15,3863.86C1095.15,3864.66 1095.13,3865.86 1095.11,3867.46C1095.08,3869.06 1095.07,3870.15 1095.07,3870.73C1098.63,3863.97 1103.16,3860.59 1108.64,3860.59C1111.73,3860.59 1114.28,3861.49 1116.27,3863.31C1118.27,3865.12 1119.67,3867.59 1120.47,3870.73C1124.04,3863.97 1128.56,3860.59 1134.05,3860.59C1138.09,3860.59 1141.18,3862.11 1143.31,3865.14C1145.55,3868.18 1146.67,3871.85 1146.67,3876.16Z" style="fill:rgb(47,100,152);fill-rule:nonzero;stroke:rgb(47,100,152);stroke-width:0.8px;"/>
                <path d="M1161.29,3844.61L1160.89,3871.37L1161.29,3898.13C1161.29,3900.8 1160.27,3902.13 1158.25,3902.13C1156.23,3902.13 1155.21,3900.8 1155.21,3898.13L1155.61,3871.37L1155.21,3844.61C1155.21,3841.95 1156.23,3840.62 1158.25,3840.62C1160.27,3840.62 1161.29,3841.95 1161.29,3844.61Z" style="fill:rgb(47,100,152);fill-rule:nonzero;stroke:rgb(47,100,152);stroke-width:0.8px;"/>
                <path d="M1200.51,3882C1200.51,3885.88 1200.79,3889.12 1201.34,3891.7C1201.9,3894.28 1202.61,3895.74 1203.46,3896.06C1203.78,3896.22 1204.17,3896.32 1204.62,3896.38C1205.07,3896.43 1205.39,3896.51 1205.58,3896.61C1205.76,3896.72 1205.86,3896.93 1205.86,3897.25C1205.86,3898.74 1205.46,3899.93 1204.66,3900.81C1203.86,3901.69 1202.7,3902.13 1201.18,3902.13C1199.67,3902.13 1198.48,3901.15 1197.63,3899.21C1196.78,3897.27 1196.35,3894.72 1196.35,3891.58C1194.91,3894.67 1192.92,3897.2 1190.36,3899.17C1187.81,3901.14 1184.92,3902.13 1181.69,3902.13C1178.47,3902.13 1175.72,3901.06 1173.43,3898.93C1169.17,3894.99 1167.04,3889.43 1167.04,3882.24C1167.04,3876.43 1168.71,3871.37 1172.07,3867.06C1175.42,3862.75 1179.74,3860.59 1185.01,3860.59C1189,3860.59 1192.46,3861.95 1195.39,3864.66C1195.39,3861.95 1196.4,3860.59 1198.43,3860.59C1200.88,3860.59 1202.1,3862.41 1202.1,3866.06C1202.1,3869.71 1201.57,3875.02 1200.51,3882ZM1195.87,3882.72L1195.47,3870.41C1192.33,3867.33 1189,3865.78 1185.49,3865.78C1181.97,3865.78 1178.96,3867.35 1176.46,3870.49C1173.96,3873.64 1172.71,3877.43 1172.71,3881.88C1172.71,3886.32 1173.53,3889.94 1175.18,3892.74C1176.84,3895.54 1179.12,3896.93 1182.05,3896.93C1184.98,3896.93 1187.68,3895.63 1190.16,3893.02C1192.64,3890.41 1194.54,3886.97 1195.87,3882.72ZM1194.19,3843.66C1194.19,3845.94 1192.97,3848.25 1190.52,3850.56C1188.07,3852.88 1186.14,3854.04 1184.73,3854.04C1183.32,3854.04 1182.61,3853.45 1182.61,3852.28C1182.61,3851.59 1182.91,3850.94 1183.49,3850.32C1184.08,3849.71 1184.82,3848.85 1185.73,3847.73C1186.15,3847.09 1186.66,3846.09 1187.25,3844.73C1187.83,3843.38 1188.43,3842.35 1189.04,3841.66C1189.66,3840.97 1190.41,3840.62 1191.32,3840.62C1192.23,3840.62 1192.93,3840.91 1193.44,3841.5C1193.94,3842.08 1194.19,3842.8 1194.19,3843.66Z" style="fill:rgb(47,100,152);fill-rule:nonzero;stroke:rgb(47,100,152);stroke-width:0.8px;"/>
                <path d="M1238.05,3889.82C1238.05,3893.39 1236.57,3896.34 1233.62,3898.65C1230.66,3900.97 1227.13,3902.13 1223.03,3902.13C1218.93,3902.13 1215.34,3901.19 1212.25,3899.33C1209.21,3897.41 1207.69,3895.52 1207.69,3893.66C1207.69,3892.43 1208.2,3891.61 1209.21,3891.18C1210.22,3890.76 1211,3890.81 1211.53,3891.34C1211.64,3891.39 1212.7,3892.43 1214.72,3894.46C1215.31,3894.99 1216.4,3895.54 1218,3896.1C1219.6,3896.65 1221.01,3896.93 1222.23,3896.93C1225.21,3896.93 1227.64,3896.32 1229.5,3895.1C1231.37,3893.87 1232.3,3892.14 1232.3,3889.9C1232.3,3887.08 1229.63,3884.76 1224.31,3882.95C1218.4,3880.93 1214.62,3879.2 1212.97,3877.76C1212.17,3877.07 1211.44,3876.15 1210.77,3875.01C1210.11,3873.86 1209.77,3872.65 1209.77,3871.37C1209.77,3868.5 1211.09,3865.98 1213.73,3863.82C1216.36,3861.67 1219.52,3860.59 1223.19,3860.59C1226.87,3860.59 1229.85,3861.22 1232.14,3862.47C1234.43,3863.72 1235.57,3865.12 1235.57,3866.66C1235.57,3868.42 1234.64,3869.3 1232.78,3869.3C1232.03,3869.3 1231.23,3869 1230.38,3868.42C1227.82,3866.66 1225.36,3865.78 1222.99,3865.78C1220.62,3865.78 1218.83,3866.31 1217.6,3867.38C1216.16,3868.39 1215.44,3869.58 1215.44,3870.93C1215.44,3872.29 1216.13,3873.4 1217.52,3874.25C1218.9,3875.1 1221.17,3876.15 1224.31,3877.4C1227.45,3878.66 1229.37,3879.44 1230.06,3879.76C1232.4,3880.77 1234.32,3882.16 1235.81,3883.91C1237.3,3885.67 1238.05,3887.64 1238.05,3889.82Z" style="fill:rgb(47,100,152);fill-rule:nonzero;stroke:rgb(47,100,152);stroke-width:0.8px;"/>
            </g>
        </g>
    </g>
</svg>
