<?xml version="1.0" encoding="UTF-8" standalone="no"?>
<!DOCTYPE svg PUBLIC "-//W3C//DTD SVG 1.1//EN" "http://www.w3.org/Graphics/SVG/1.1/DTD/svg11.dtd">
<svg width="100%" height="100%" viewBox="0 0 771 759" version="1.1" xmlns="http://www.w3.org/2000/svg" xmlns:xlink="http://www.w3.org/1999/xlink" xml:space="preserve" xmlns:serif="http://www.serif.com/" style="fill-rule:evenodd;clip-rule:evenodd;stroke-linejoin:round;stroke-miterlimit:2;">
    <g transform="matrix(1,0,0,1,-6486.5,-20530.3)">
        <g id="Artboard7" transform="matrix(0.844749,0,0,0.90099,1059.16,2085.07)">
            <rect x="6424.8" y="20472.2" width="912.5" height="841.667" style="fill:none;"/>
            <g transform="matrix(2.79506,0,0,1.02458,6050.71,8436.42)">
                <g transform="matrix(-0.767136,0.403609,0.179544,2.23251,232.298,6527.08)">
                    <path d="M349.646,2437.4C349.646,2437.4 353.115,2452.32 376.878,2457.64C389.726,2460.51 408.208,2460.51 435.091,2454.28C446.432,2451.87 456.699,2446.65 466.824,2440.71C473.673,2436.69 480.397,2432.25 487.189,2427.88C496.076,2422.14 505.052,2416.5 514.222,2411.64C524.346,2406.27 534.703,2401.84 545.577,2399.48C569.736,2394.23 596.389,2398.2 627.746,2424.41C628.786,2425.19 628.912,2426.56 628.028,2427.47C627.144,2428.39 625.582,2428.5 624.542,2427.72C593.998,2407.35 570.515,2405.25 549.718,2411.68C542.354,2413.96 535.422,2417.35 528.574,2421.22C518.29,2427.03 508.462,2434.16 498.347,2440.97C491.31,2445.7 484.137,2450.27 476.772,2454.29C464.614,2460.91 451.913,2466 438.423,2468.15C408.034,2472.42 387.626,2470.54 373.888,2466.01C346.057,2456.82 344.738,2437.93 344.738,2437.93C344.569,2436.74 345.532,2435.66 346.887,2435.51C348.241,2435.36 349.477,2436.21 349.646,2437.4L349.646,2437.4Z" style="fill:rgb(14,185,176);"/>
                </g>
                <g transform="matrix(-0.767136,0.403609,0.179544,2.23251,232.298,6614.74)">
                    <path d="M349.646,2437.4C349.646,2437.4 353.115,2452.32 376.878,2457.64C389.726,2460.51 408.208,2460.51 435.091,2454.28C446.432,2451.87 456.699,2446.65 466.824,2440.71C473.673,2436.69 480.397,2432.25 487.189,2427.88C496.076,2422.14 505.052,2416.5 514.222,2411.64C524.346,2406.27 534.703,2401.84 545.577,2399.48C569.736,2394.23 596.389,2398.2 627.746,2424.41C628.786,2425.19 628.912,2426.56 628.028,2427.47C627.144,2428.39 625.582,2428.5 624.542,2427.72C593.998,2407.35 570.515,2405.25 549.718,2411.68C542.354,2413.96 535.422,2417.35 528.574,2421.22C518.29,2427.03 508.462,2434.16 498.347,2440.97C491.31,2445.7 484.137,2450.27 476.772,2454.29C464.614,2460.91 451.913,2466 438.423,2468.15C408.034,2472.42 387.626,2470.54 373.888,2466.01C346.057,2456.82 344.738,2437.93 344.738,2437.93C344.569,2436.74 345.532,2435.66 346.887,2435.51C348.241,2435.36 349.477,2436.21 349.646,2437.4L349.646,2437.4Z" style="fill:rgb(14,185,176);"/>
                </g>
                <g transform="matrix(-0.767136,0.403609,0.179544,2.23251,232.298,6439.43)">
                    <path d="M349.646,2437.4C349.646,2437.4 353.115,2452.32 376.878,2457.64C389.726,2460.51 408.208,2460.51 435.091,2454.28C446.432,2451.87 456.699,2446.65 466.824,2440.71C473.673,2436.69 480.397,2432.25 487.189,2427.88C496.076,2422.14 505.052,2416.5 514.222,2411.64C524.346,2406.27 534.703,2401.84 545.577,2399.48C569.736,2394.23 596.389,2398.2 627.746,2424.41C628.786,2425.19 628.912,2426.56 628.028,2427.47C627.144,2428.39 625.582,2428.5 624.542,2427.72C593.998,2407.35 570.515,2405.25 549.718,2411.68C542.354,2413.96 535.422,2417.35 528.574,2421.22C518.29,2427.03 508.462,2434.16 498.347,2440.97C491.31,2445.7 484.137,2450.27 476.772,2454.29C464.614,2460.91 451.913,2466 438.423,2468.15C408.034,2472.42 387.626,2470.54 373.888,2466.01C346.057,2456.82 344.738,2437.93 344.738,2437.93C344.569,2436.74 345.532,2435.66 346.887,2435.51C348.241,2435.36 349.477,2436.21 349.646,2437.4L349.646,2437.4Z" style="fill:rgb(14,185,176);"/>
                </g>
            </g>
            <g transform="matrix(1.02811,-0.169967,0.15808,0.840555,5920.06,19689.9)">
                <path d="M304.205,1490.05C309.134,1389.85 355.872,1303.05 426.465,1243.29C459.004,1215.74 496.623,1194.46 537.698,1180C575.863,1166.56 616.961,1158.99 659.934,1159.87C685.314,1159.52 710.017,1162.27 733.906,1166.93C794.054,1178.66 848.688,1204.89 893.586,1243.03C964.118,1302.95 1010.83,1389.81 1015.66,1490.05C1020.73,1384.99 980.433,1287.66 911.887,1217.29C866.09,1170.27 807.624,1135.56 742.093,1118.92C715.754,1112.24 688.188,1109.16 659.934,1108.77C612.185,1109.74 566.483,1118.96 524.893,1136.65C480.62,1155.49 440.867,1182.97 407.799,1217.03C339.316,1287.57 299.034,1384.93 304.205,1490.05Z" style="fill:rgb(47,100,152);"/>
            </g>
            <g transform="matrix(-0.181283,-0.963932,0.896517,-0.148212,5596.88,21786)">
                <path d="M304.205,1490.05C309.134,1389.85 355.872,1303.05 426.465,1243.29C459.004,1215.74 496.623,1194.46 537.698,1180C575.863,1166.56 616.961,1158.99 659.934,1159.87C685.314,1159.52 710.017,1162.27 733.906,1166.93C794.054,1178.66 848.688,1204.89 893.586,1243.03C964.118,1302.95 1010.83,1389.81 1015.66,1490.05C1020.73,1384.99 980.433,1287.66 911.887,1217.29C866.09,1170.27 807.624,1135.56 742.093,1118.92C715.754,1112.24 688.188,1109.16 659.934,1108.77C612.185,1109.74 566.483,1118.96 524.893,1136.65C480.62,1155.49 440.867,1182.97 407.799,1217.03C339.316,1287.57 299.034,1384.93 304.205,1490.05Z" style="fill:rgb(47,100,152);"/>
            </g>
            <g transform="matrix(0.181283,0.963932,-0.896517,0.148212,8156.84,19991.3)">
                <path d="M304.205,1490.05C309.134,1389.85 355.872,1303.05 426.465,1243.29C459.004,1215.74 496.623,1194.46 537.698,1180C575.863,1166.56 616.961,1158.99 659.934,1159.87C685.314,1159.52 710.017,1162.27 733.906,1166.93C794.054,1178.66 848.688,1204.89 893.586,1243.03C964.118,1302.95 1010.83,1389.81 1015.66,1490.05C1020.73,1384.99 980.433,1287.66 911.887,1217.29C866.09,1170.27 807.624,1135.56 742.093,1118.92C715.754,1112.24 688.188,1109.16 659.934,1108.77C612.185,1109.74 566.483,1118.96 524.893,1136.65C480.62,1155.49 440.867,1182.97 407.799,1217.03C339.316,1287.57 299.034,1384.93 304.205,1490.05Z" style="fill:rgb(47,100,152);"/>
            </g>
            <g transform="matrix(-1.02811,0.169967,-0.15808,-0.840555,7834.27,22087.5)">
                <path d="M304.205,1490.05C309.134,1389.85 355.872,1303.05 426.465,1243.29C459.004,1215.74 496.623,1194.46 537.698,1180C575.863,1166.56 616.961,1158.99 659.934,1159.87C685.314,1159.52 710.017,1162.27 733.906,1166.93C794.054,1178.66 848.688,1204.89 893.586,1243.03C964.118,1302.95 1010.83,1389.81 1015.66,1490.05C1020.73,1384.99 980.433,1287.66 911.887,1217.29C866.09,1170.27 807.624,1135.56 742.093,1118.92C715.754,1112.24 688.188,1109.16 659.934,1108.77C612.185,1109.74 566.483,1118.96 524.893,1136.65C480.62,1155.49 440.867,1182.97 407.799,1217.03C339.316,1287.57 299.034,1384.93 304.205,1490.05Z" style="fill:rgb(47,100,152);"/>
            </g>
            <g transform="matrix(0.238273,-1.00374,-1.25632,-0.351727,6965.27,20779.9)">
                <path d="M-87.721,328.68C33.164,327.793 123.87,239.001 151.286,174.52C171.869,126.111 160.258,90.437 143.418,66.821C127.773,44.882 119.342,31.846 119.342,31.846C119.342,31.846 103.268,40.639 117.963,65.762C122.781,73.997 125.642,81.293 125.642,81.293C125.642,81.293 164.139,153.953 67.189,223.915C67.189,223.915 84.466,182.929 87.211,159.767C88.035,152.817 87.574,149.384 84.064,145.523C84.064,145.523 81.248,146.817 72.782,160.677C38.62,216.601 58.836,270.04 -87.721,328.68" style="fill:rgb(47,100,152);fill-rule:nonzero;"/>
            </g>
            <g transform="matrix(-0.238273,1.00374,1.25632,0.351727,6790.35,20997)">
                <path d="M-87.721,328.68C33.164,327.793 123.87,239.001 151.286,174.52C171.869,126.111 160.258,90.437 143.418,66.821C127.773,44.882 119.342,31.846 119.342,31.846C119.342,31.846 103.268,40.639 117.963,65.762C122.781,73.997 125.642,81.293 125.642,81.293C125.642,81.293 164.139,153.953 67.189,223.915C67.189,223.915 84.466,182.929 87.211,159.767C88.035,152.817 87.574,149.384 84.064,145.523C84.064,145.523 81.248,146.817 72.782,160.677C38.62,216.601 58.836,270.04 -87.721,328.68" style="fill:rgb(47,100,152);fill-rule:nonzero;"/>
            </g>
        </g>
    </g>
</svg>
